#!OML:ASF X:\für Bonn\!DataBase\2005_08_12_Daniel\c3d\Daniel.ASF
:FULLY-SPECIFIED
:DEGREES
408
root 14.8897 1.35169 1.06048 -720.747 -85.2683 -102.721
lowerback 17.816 -2.28999 2.66806
upperback 1.96781 -2.74379 -1.15051
thorax -8.04514 -1.49276 -2.07466
lowerneck -9.04334 1.39575 -9.50921
upperneck 5.54722 2.76045 3.27612
head 3.27644 1.27687 2.9695
rclavicle 1.72744e-013 -1.92753e-013
rhumerus -50.3298 -17.5496 -64.2748
rradius 11.8157
rwrist 68.606
rhand -11.7677 -344.344
rfingers 7.12502
rthumb 14.2808 -373.833
lclavicle 1.72744e-013 -1.92753e-013
lhumerus -406.748 7.24149 -287.543
lradius 17.2742
lwrist -54.4584
lhand -8.73902 350.774
lfingers 7.12502
lthumb 17.1976 380.033
rfemur 193.338 -202.545 202.994
rtibia 18.6282
rfoot -17.0441 -31.2005
rtoes 28.2549
lfemur 2.97177 -23.4631 -20.2952
ltibia 30.0629
lfoot 9.69718 25.1374
ltoes 8.12981
409
root 14.8904 1.35222 1.05524 -720.775 -85.196 -102.518
lowerback 17.6693 -2.30836 2.64218
upperback 1.85166 -2.77162 -1.15376
thorax -8.0916 -1.50484 -2.05922
lowerneck -9.13115 1.37246 -9.63252
upperneck 5.80698 2.72336 3.62727
head 3.03157 1.2832 2.79061
rclavicle -9.53172e-014 5.0395e-014
rhumerus -50.4174 -17.4872 -64.224
rradius 11.8082
rwrist 68.6523
rhand -11.8573 -344.248
rfingers 7.12502
rthumb 14.1945 -373.743
lclavicle -9.53172e-014 5.0395e-014
lhumerus -406.864 7.2598 -287.667
lradius 17.169
lwrist -54.4866
lhand -8.78152 350.815
lfingers 7.12502
lthumb 17.1567 380.077
rfemur 193.022 -201.449 202.38
rtibia 18.5153
rfoot -16.351 -31.5518
rtoes 27.5236
lfemur 2.80442 -23.3725 -20.0985
ltibia 29.971
lfoot 9.34008 25.4907
ltoes 8.18678
410
root 14.8931 1.34996 1.05043 -720.877 -85.1309 -102.254
lowerback 17.5701 -2.32446 2.59421
upperback 1.73465 -2.79797 -1.1319
thorax -8.16256 -1.51535 -2.00305
lowerneck -9.27027 1.34507 -9.78664
upperneck 5.84209 2.71278 3.71938
head 3.06208 1.27853 2.84524
rclavicle 5.84427e-014 -7.3569e-014
rhumerus -50.5139 -17.5962 -63.9601
rradius 11.7742
rwrist 68.9103
rhand -11.9348 -344.172
rfingers 7.12502
rthumb 14.1198 -373.672
lclavicle 5.84427e-014 -7.3569e-014
lhumerus -406.992 7.33548 -287.768
lradius 17.083
lwrist -54.5435
lhand -8.80169 350.854
lfingers 7.12502
lthumb 17.1373 380.119
rfemur 192.684 -200.215 201.705
rtibia 18.4098
rfoot -15.1223 -31.9004
rtoes 27.2467
lfemur 2.64877 -23.3347 -19.9413
ltibia 29.8779
lfoot 8.98449 25.805
ltoes 8.31898
411
root 14.8964 1.34532 1.04699 -720.953 -85.0294 -102.014
lowerback 17.4806 -2.3571 2.60042
upperback 1.62689 -2.83912 -1.14802
thorax -8.23426 -1.53564 -2.01478
lowerneck -9.40452 1.31367 -9.84997
upperneck 5.87532 2.68713 3.7951
head 3.09369 1.26804 2.87963
rclavicle -6.77856e-014 1.14239e-014
rhumerus -50.5909 -17.675 -63.829
rradius 11.7407
rwrist 69.0916
rhand -12.0163 -344.138
rfingers 7.12502
rthumb 14.0412 -373.644
lclavicle -6.77856e-014 1.14239e-014
lhumerus -407.07 7.39785 -287.946
lradius 16.9589
lwrist -54.6707
lhand -8.81785 350.846
lfingers 7.12502
lthumb 17.1218 380.111
rfemur 192.339 -198.923 201.029
rtibia 18.3194
rfoot -13.8452 -32.2095
rtoes 27.0623
lfemur 2.48014 -23.3562 -19.7883
ltibia 29.7951
lfoot 8.57416 26.1097
ltoes 8.82252
412
root 14.8994 1.33942 1.04262 -721.081 -84.9386 -101.734
lowerback 17.4077 -2.38641 2.57312
upperback 1.52226 -2.88039 -1.13997
thorax -8.30874 -1.5545 -1.98093
lowerneck -9.54591 1.28842 -9.97381
upperneck 5.92049 2.67743 3.87639
head 3.12817 1.26391 2.92635
rclavicle -6.69904e-014 9.04594e-014
rhumerus -50.6793 -17.7941 -63.5906
rradius 11.7187
rwrist 69.3627
rhand -12.12 -344.018
rfingers 7.12502
rthumb 13.9414 -373.531
lclavicle -6.69904e-014 9.04594e-014
lhumerus -407.156 7.60446 -288.171
lradius 16.8314
lwrist -54.9289
lhand -8.79051 350.841
lfingers 7.12502
lthumb 17.1481 380.104
rfemur 192.006 -197.655 200.384
rtibia 18.2565
rfoot -12.4086 -32.4908
rtoes 26.9761
lfemur 2.315 -23.3903 -19.6543
ltibia 29.7245
lfoot 8.11367 26.3703
ltoes 9.41694
